<svg width="32" height="32" viewBox="0 0 32 32" fill="none" xmlns="http://www.w3.org/2000/svg">
<path fill-rule="evenodd" clip-rule="evenodd" d="M19.7056 9.33203H12.2945C10.6576 9.33203 9.33057 10.659 9.33057 12.2959V19.707C9.33057 21.3439 10.6576 22.6709 12.2945 22.6709H19.7056C21.3425 22.6709 22.6695 21.3439 22.6695 19.707V12.2946C22.6687 10.6582 21.342 9.33203 19.7056 9.33203Z" stroke="#06080F" stroke-linecap="round" stroke-linejoin="round"/>
<path d="M14.0122 13.5424C14.1078 13.6377 14.1365 13.7812 14.085 13.9059C14.0334 14.0307 13.9118 14.112 13.7768 14.112C13.6418 14.112 13.5202 14.0307 13.4686 13.9059C13.4171 13.7812 13.4458 13.6377 13.5414 13.5424C13.6037 13.4797 13.6884 13.4445 13.7768 13.4445C13.8652 13.4445 13.9499 13.4797 14.0122 13.5424" stroke="#06080F" stroke-width="1.5" stroke-linecap="round" stroke-linejoin="round"/>
<path d="M22.6692 15.3346C22.3601 15.2877 22.0481 15.2627 21.7355 15.2599C19.8507 15.2466 18.0549 16.0606 16.8227 17.4869C15.5905 18.9132 15.0459 20.8081 15.3328 22.671" stroke="#06080F" stroke-linecap="round" stroke-linejoin="round"/>
<path d="M20.0015 28.0057H22.6692C25.616 28.0057 28.0048 25.6169 28.0048 22.6702V20.8027" stroke="#06080F" stroke-width="1.5" stroke-linecap="round" stroke-linejoin="round"/>
<path d="M11.1976 3.99609H9.33018C6.38344 3.99609 3.99463 6.3849 3.99463 9.33165V11.1991" stroke="#06080F" stroke-width="1.5" stroke-linecap="round" stroke-linejoin="round"/>
<path d="M3.99463 20.8027V22.6702C3.99463 25.6169 6.38344 28.0057 9.33018 28.0057H11.1976" stroke="#06080F" stroke-width="1.5" stroke-linecap="round" stroke-linejoin="round"/>
<path d="M28.0048 11.1991V9.33165C28.0048 6.3849 25.616 3.99609 22.6692 3.99609H20.0015" stroke="#06080F" stroke-width="1.5" stroke-linecap="round" stroke-linejoin="round"/>
</svg>
